<?xml version="1.0" encoding="UTF-8" standalone="no"?> <svg xmlns="http://www.w3.org/2000/svg" viewBox="0 0 32 32"><defs><style>.cls-1{fill:#009ae0;}.cls-2{fill:#00cf66;}.cls-3{fill:#fd3730;}.cls-4{fill:#8fa5a5;}.cls-5{fill:#eaeff0;}</style></defs><title>Analysis</title><g id="Analysis"><path class="cls-1" d="M5,26V8A2,2,0,0,1,7,6H9a2,2,0,0,1,2,2V26Z"/><path class="cls-2" d="M13,26V20a2,2,0,0,1,2-2h2a2,2,0,0,1,2,2v6Z"/><path class="cls-3" d="M21,26V22a2,2,0,0,1,2-2h2a2,2,0,0,1,2,2v4Z"/><rect class="cls-4" x="2" y="25" width="28" height="2" rx="1"/><path class="cls-1" d="M29.707,18.293l-3.82-3.82a6.012,6.012,0,1,0-1.414,1.414l3.82,3.82a1,1,0,0,0,1.414-1.414Z"/><circle class="cls-5" cx="21" cy="11" r="4"/></g></svg>