<svg xmlns="http://www.w3.org/2000/svg" viewBox="0 0 512 512"><defs><style>.cls-1{fill:#00b529;}.cls-2{fill:#8a4711;}.cls-3{fill:#505560;}.cls-4{fill:#636978;}.cls-5{fill:#595f6b;}.cls-6{fill:#b3f2d7;}.cls-7{fill:#a3d8bf;}.cls-8{fill:#fff;}.cls-9{fill:#23a8fe;}.cls-10{fill:none;stroke:#595f6b;stroke-linecap:round;stroke-miterlimit:10;stroke-width:10px;}.cls-11{fill:#f92814;}.cls-12{fill:#ffda45;}.cls-13{fill:#76d67b;}.cls-14{fill:#e8ba64;}.cls-15{fill:#773910;}.cls-16{fill:#c4c4c4;}</style></defs><title>Development</title><g id="BULINE"><circle class="cls-1" cx="256" cy="256" r="256"/></g><g id="Icons"><path class="cls-2" d="M480.55,379.07a257.27,257.27,0,0,1-92,96,253.88,253.88,0,0,1-38.48,19.11q-6.83,2.71-13.84,5a257.38,257.38,0,0,1-159.36.39q-7-2.28-13.84-5a252.31,252.31,0,0,1-37.56-18.31,257.24,257.24,0,0,1-94.06-97.27Z"/><rect class="cls-3" x="217.6" y="269.31" width="79" height="81.7"/><path class="cls-4" d="M465.27,46.51v209a30.82,30.82,0,0,1-30.81,30.8H79.74a30.81,30.81,0,0,1-30.81-30.8v-209a30.8,30.8,0,0,1,30.81-30.8H434.46A30.81,30.81,0,0,1,465.27,46.51Z"/><path class="cls-5" d="M170.16,286.33H79.74a30.81,30.81,0,0,1-30.81-30.8v-209a30.8,30.8,0,0,1,30.81-30.8h90.42a30.8,30.8,0,0,0-30.81,30.8v209A30.81,30.81,0,0,0,170.16,286.33Z"/><rect class="cls-4" x="183.9" y="345.81" width="146.39" height="33.26" rx="16.63"/><path class="cls-6" d="M465.27,46.51V251H48.93V46.51a30.8,30.8,0,0,1,30.81-30.8H434.46A30.81,30.81,0,0,1,465.27,46.51Z"/><path class="cls-7" d="M170.16,15.71a30.8,30.8,0,0,0-30.81,30.8V251H48.93V46.51a30.8,30.8,0,0,1,30.81-30.8Z"/><path class="cls-8" d="M426,61.78V209.07a23.65,23.65,0,0,1-23.65,23.65H111.83a23.64,23.64,0,0,1-23.64-23.65V61.78a23.63,23.63,0,0,1,23.64-23.64H402.36A23.64,23.64,0,0,1,426,61.78Z"/><path class="cls-9" d="M426,61.78V75.56H88.19V61.78a23.63,23.63,0,0,1,23.64-23.64H402.36A23.64,23.64,0,0,1,426,61.78Z"/><path class="cls-3" d="M188.33,127.24l9.38-3.66.9-.35a7.62,7.62,0,0,0,4.87-7.11v-.05A7.64,7.64,0,0,0,192.92,109l-39.49,16.34a7.65,7.65,0,0,0-4.72,7.06v3.86a7.62,7.62,0,0,0,4.72,7.06l15.62,6.46,23.87,9.88a7.65,7.65,0,0,0,10.56-7.06v0a7.64,7.64,0,0,0-4.88-7.12l-10.26-4A7.64,7.64,0,0,1,188.33,127.24Z"/><path class="cls-3" d="M262.26,94.59a7.64,7.64,0,0,0-7.45,6l-5.12,23-9.57,43s0,.06,0,.09a7.79,7.79,0,0,0-.17,1.58A7.65,7.65,0,0,0,255,169.88l.72-3.22,9.57-43.08,4.38-19.7A7.63,7.63,0,0,0,262.26,94.59Z"/><path class="cls-3" d="M356.41,125.35,316.92,109a7.64,7.64,0,0,0-10.56,7.06v.05a7.63,7.63,0,0,0,4.88,7.11l10.28,4a7.64,7.64,0,0,1,0,14.24l-10.27,4a7.66,7.66,0,0,0-4.88,7.12v0a7.65,7.65,0,0,0,10.56,7.06l39.49-16.34a7.63,7.63,0,0,0,4.71-7.06v-3.86A7.65,7.65,0,0,0,356.41,125.35Z"/><line class="cls-10" x1="148.72" y1="191.98" x2="263.44" y2="191.98"/><line class="cls-10" x1="148.72" y1="214.84" x2="217.6" y2="214.84"/><line class="cls-10" x1="235.46" y1="214.84" x2="269.9" y2="214.84"/><line class="cls-10" x1="291.77" y1="191.98" x2="355.69" y2="191.98"/><line class="cls-10" x1="291.77" y1="214.84" x2="355.69" y2="214.84"/><circle class="cls-11" cx="118.96" cy="56.85" r="9.42"/><circle class="cls-12" cx="148.72" cy="56.85" r="9.42"/><circle class="cls-13" cx="178.47" cy="56.85" r="9.42"/><rect class="cls-14" x="219.53" y="342.22" width="75.14" height="66.57"/><path class="cls-2" d="M291,361.46H223.17a54.85,54.85,0,0,1-54.82-53l-2.29-67.58a71.79,71.79,0,0,1,71.75-74.22h38.58a71.79,71.79,0,0,1,71.75,74.22l-2.29,67.58A54.86,54.86,0,0,1,291,361.46Z"/><path class="cls-15" d="M336.27,338.34a54.83,54.83,0,0,1-44.76,23.12H223.66a54.86,54.86,0,0,1-54.82-53l-2.29-67.58a71.77,71.77,0,0,1,40-66.82,71.5,71.5,0,0,0-16.14,47.83l2.28,67.59a54.86,54.86,0,0,0,54.82,53h67.87A54.75,54.75,0,0,0,336.27,338.34Z"/><path class="cls-8" d="M388.59,475.08a253.88,253.88,0,0,1-38.48,19.11q-6.83,2.71-13.84,5a257.38,257.38,0,0,1-159.36.39q-7-2.28-13.84-5a252.31,252.31,0,0,1-37.56-18.31l2.24-27.68C130.24,417.89,160.1,394,196.09,394h122c36,0,65.85,23.88,68.34,54.65Z"/><path class="cls-16" d="M176.91,472.16V499.6q-7-2.28-13.84-5V472.16a6.92,6.92,0,0,1,13.84,0Z"/><path class="cls-16" d="M350.11,472.16v22q-6.83,2.71-13.84,5v-27a6.92,6.92,0,0,1,13.84,0Z"/></g></svg>